<svg width="58" height="38" viewBox="0 0 58 38" fill="none" xmlns="http://www.w3.org/2000/svg">
<path d="M19.3258 0.111355C18.6348 0.282058 18.1703 0.556668 17.8531 0.979715L17.5586 1.36565V18.9926C17.5586 36.5825 17.5586 36.627 17.7965 36.961C18.2723 37.6586 19.0086 37.9555 20.2207 37.9555C21.4668 37.9555 22.2824 37.5992 22.7016 36.8719C22.8715 36.5825 22.8828 35.0239 22.8602 18.8813L22.8262 1.20979L22.4863 0.846121C21.8293 0.155886 20.4359 -0.163254 19.3258 0.111355Z" fill="white"/>
<path d="M27.9238 6.59805C27.3801 6.76133 26.825 7.11758 26.5418 7.48868C26.3492 7.74102 26.3379 8.34961 26.3039 18.7773C26.2813 26.6668 26.3039 29.9102 26.3945 30.1848C26.5758 30.7191 27.0742 31.1422 27.7879 31.3649C29.4078 31.8547 31.2543 31.2906 31.6055 30.1848C31.6848 29.9176 31.7074 26.3996 31.6961 18.7773C31.6621 8.34219 31.6508 7.74102 31.4582 7.48868C30.9711 6.8504 30.0422 6.45704 29 6.45704C28.6375 6.45704 28.1844 6.51641 27.9238 6.59805Z" fill="white"/>
<path d="M45.3465 6.64258C44.6668 6.86524 44.2137 7.22149 43.9984 7.70391C43.7605 8.21602 43.7605 29.7988 43.9984 30.3109C44.3723 31.1199 45.4145 31.5875 46.7285 31.5281C47.748 31.4836 48.4277 31.2016 48.8809 30.6152L49.2207 30.1773V18.9703V7.75586L48.9715 7.45157C48.2352 6.55352 46.6832 6.20469 45.3465 6.64258Z" fill="white"/>
<path d="M10.6258 9.75235C9.6629 9.98243 9.03986 10.45 8.83595 11.0883C8.75665 11.3555 8.72267 13.8715 8.74532 19.2227C8.77931 26.5109 8.79064 26.9934 8.98321 27.2754C9.92345 28.6484 12.8688 28.6856 13.8883 27.3422C14.0922 27.0602 14.1035 26.793 14.1035 19C14.1035 11.2887 14.0922 10.9398 13.8883 10.6875C13.2313 9.87852 11.7926 9.4629 10.6258 9.75235Z" fill="white"/>
<path d="M36.6465 13.0551C36.3973 13.1293 36.0348 13.3074 35.8309 13.441C35.0945 13.9531 35.1172 13.7527 35.1172 19.0297V23.8094L35.4344 24.2027C35.8649 24.7445 36.5672 25.034 37.5641 25.0711C38.4477 25.1082 39.1047 24.9672 39.6371 24.6258C40.4301 24.1211 40.3848 24.4402 40.4188 19.1856C40.4414 15.7418 40.4188 14.3465 40.3168 14.1238C40.1469 13.7231 39.5012 13.2258 38.9235 13.0551C38.3117 12.8695 37.2469 12.877 36.6465 13.0551Z" fill="white"/>
<path d="M1.48399 16.2984C0.815629 16.5211 0.294536 16.9293 0.101958 17.3895C0.0339889 17.5676 4.48913e-06 18.2727 0.0226607 19.1781C0.0566451 20.5363 0.0793013 20.6996 0.305864 20.9668C0.611723 21.3453 0.951567 21.5531 1.58594 21.7387C2.5375 22.0207 3.68164 21.9094 4.44063 21.4641C5.25625 20.9816 5.32422 20.8184 5.32422 19.0074C5.32422 17.5379 5.30157 17.3895 5.08633 17.0926C4.44063 16.2168 2.83204 15.8606 1.48399 16.2984Z" fill="white"/>
<path d="M54.3863 16.202C53.8199 16.343 53.1855 16.7289 52.9137 17.0926C52.6984 17.3895 52.6758 17.5379 52.6758 19.0074C52.6758 20.8184 52.7438 20.9816 53.5594 21.4641C54.3184 21.9094 55.4625 22.0207 56.4141 21.7387C57.0484 21.5531 57.3883 21.3453 57.6941 20.9668C57.932 20.6848 57.9434 20.566 57.9434 18.9926V17.3152L57.6035 16.9516C57.1164 16.4395 56.3688 16.1574 55.4625 16.1277C55.0887 16.1203 54.6016 16.15 54.3863 16.202Z" fill="white"/>
</svg>
