<svg width="390" height="38" viewBox="0 0 390 38" fill="none" xmlns="http://www.w3.org/2000/svg">
<g clip-path="url(#clip0_2_13)">
<path d="M19.3258 0.111352C18.6348 0.282055 18.1703 0.556665 17.8531 0.979712L17.5586 1.36565V18.9926C17.5586 36.5824 17.5586 36.627 17.7965 36.961C18.2723 37.6586 19.0086 37.9555 20.2207 37.9555C21.4668 37.9555 22.2824 37.5992 22.7016 36.8719C22.8715 36.5824 22.8828 35.0239 22.8602 18.8813L22.8262 1.20979L22.4863 0.846118C21.8293 0.155884 20.4359 -0.163257 19.3258 0.111352Z" fill="white"/>
<path d="M27.9238 6.59805C27.3801 6.76133 26.825 7.11758 26.5418 7.48867C26.3492 7.74102 26.3379 8.34961 26.3039 18.7773C26.2812 26.6668 26.3039 29.9102 26.3945 30.1848C26.5758 30.7191 27.0742 31.1422 27.7879 31.3648C29.4078 31.8547 31.2543 31.2906 31.6055 30.1848C31.6847 29.9176 31.7074 26.3996 31.6961 18.7773C31.6621 8.34219 31.6508 7.74102 31.4582 7.48867C30.9711 6.85039 30.0422 6.45703 29 6.45703C28.6375 6.45703 28.1844 6.51641 27.9238 6.59805Z" fill="white"/>
<path d="M45.3465 6.64258C44.6668 6.86524 44.2137 7.22149 43.9984 7.70391C43.7605 8.21602 43.7605 29.7988 43.9984 30.3109C44.3723 31.1199 45.4144 31.5875 46.7285 31.5281C47.748 31.4836 48.4277 31.2016 48.8808 30.6152L49.2207 30.1773V18.9703V7.75586L48.9715 7.45156C48.2351 6.55352 46.6832 6.20469 45.3465 6.64258Z" fill="white"/>
<path d="M10.6258 9.75235C9.66287 9.98242 9.03982 10.45 8.83592 11.0883C8.75662 11.3555 8.72264 13.8715 8.74529 19.2227C8.77928 26.5109 8.79061 26.9934 8.98318 27.2754C9.92342 28.6484 12.8687 28.6855 13.8883 27.3422C14.0922 27.0602 14.1035 26.793 14.1035 19C14.1035 11.2887 14.0922 10.9398 13.8883 10.6875C13.2312 9.87852 11.7926 9.46289 10.6258 9.75235Z" fill="white"/>
<path d="M36.6465 13.0551C36.3973 13.1293 36.0348 13.3074 35.8308 13.441C35.0945 13.9531 35.1172 13.7527 35.1172 19.0297V23.8094L35.4344 24.2027C35.8648 24.7445 36.5672 25.034 37.564 25.0711C38.4476 25.1082 39.1047 24.9672 39.6371 24.6258C40.4301 24.1211 40.3848 24.4402 40.4187 19.1855C40.4414 15.7418 40.4187 14.3465 40.3168 14.1238C40.1469 13.723 39.5012 13.2258 38.9234 13.0551C38.3117 12.8695 37.2469 12.877 36.6465 13.0551Z" fill="white"/>
<path d="M1.48397 16.2984C0.815614 16.5211 0.29452 16.9293 0.101942 17.3895C0.0339736 17.5676 -1.07697e-05 18.2727 0.0226455 19.1781C0.0566298 20.5363 0.0792861 20.6996 0.305849 20.9668C0.611708 21.3453 0.951552 21.5531 1.58593 21.7387C2.53749 22.0207 3.68163 21.9094 4.44061 21.4641C5.25624 20.9816 5.32421 20.8184 5.32421 19.0074C5.32421 17.5379 5.30155 17.3895 5.08632 17.0926C4.44061 16.2168 2.83202 15.8605 1.48397 16.2984Z" fill="white"/>
<path d="M54.3863 16.202C53.8199 16.343 53.1855 16.7289 52.9137 17.0926C52.6984 17.3895 52.6758 17.5379 52.6758 19.0074C52.6758 20.8184 52.7438 20.9816 53.5594 21.4641C54.3184 21.9094 55.4625 22.0207 56.4141 21.7387C57.0484 21.5531 57.3883 21.3453 57.6941 20.9668C57.932 20.6848 57.9434 20.566 57.9434 18.9926V17.3152L57.6035 16.9516C57.1164 16.4395 56.3688 16.1574 55.4625 16.1277C55.0887 16.1203 54.6016 16.15 54.3863 16.202Z" fill="white"/>
</g>
<path d="M78.4775 30V21.5234L71.2271 7.96094H73.9517L78.8862 17.4971C79.0477 17.7998 79.189 18.0773 79.3101 18.3296C79.4412 18.5819 79.5674 18.8493 79.6885 19.1318H79.7642C79.8752 18.8493 79.9963 18.5819 80.1274 18.3296C80.2586 18.0773 80.4049 17.7998 80.5664 17.4971L85.5312 7.96094H88.165L80.9146 21.5234V30H78.4775ZM87.5293 22.6738V22.1895C87.5293 19.9089 88.165 18.0521 89.4365 16.6191C90.708 15.1862 92.4084 14.4697 94.5376 14.4697C96.6567 14.4697 98.3521 15.1862 99.6235 16.6191C100.895 18.0521 101.531 19.9089 101.531 22.1895V22.6738C101.531 24.9645 100.895 26.8263 99.6235 28.2593C98.3521 29.6821 96.6567 30.3936 94.5376 30.3936C92.4084 30.3936 90.708 29.6821 89.4365 28.2593C88.165 26.8263 87.5293 24.9645 87.5293 22.6738ZM89.9512 22.1895V22.6738C89.9512 24.3086 90.3346 25.6759 91.1016 26.7759C91.8786 27.8657 93.0189 28.4106 94.5225 28.4106C96.0361 28.4106 97.1764 27.8657 97.9434 26.7759C98.7204 25.6759 99.1089 24.3035 99.1089 22.6587V22.1895C99.1089 20.5547 98.7204 19.1924 97.9434 18.1025C97.1764 17.0127 96.0361 16.4678 94.5225 16.4678C93.0189 16.4678 91.8786 17.0127 91.1016 18.1025C90.3346 19.1924 89.9512 20.5547 89.9512 22.1895ZM104.588 24.7173V14.8633H106.95V24.7476C106.95 26.0392 107.227 26.9525 107.782 27.4873C108.347 28.012 109.15 28.2744 110.189 28.2744C111.077 28.2744 111.859 28.0272 112.535 27.5327C113.211 27.0382 113.746 26.4025 114.14 25.6255V14.8633H116.501V30H114.336L114.246 27.9414H114.2C113.655 28.6781 112.979 29.2583 112.172 29.6821C111.365 30.0959 110.472 30.3027 109.493 30.3027C107.989 30.3027 106.793 29.8739 105.905 29.0161C105.027 28.1584 104.588 26.7254 104.588 24.7173ZM120.664 30V14.8633H122.828L122.889 16.8765H122.964C123.368 16.2205 123.893 15.6554 124.539 15.1812C125.184 14.7069 125.966 14.4697 126.885 14.4697C127.087 14.4697 127.309 14.495 127.551 14.5454C127.793 14.5858 127.965 14.6261 128.065 14.6665V16.8613C127.874 16.821 127.662 16.7907 127.43 16.7705C127.208 16.7402 126.965 16.7251 126.703 16.7251C125.866 16.7251 125.124 16.9622 124.478 17.4365C123.842 17.9108 123.358 18.5163 123.025 19.2529V30H120.664ZM136.36 24.0361V23.5215H138.797V24.0361C138.797 25.4691 139.236 26.5387 140.114 27.2451C140.992 27.9515 142.213 28.3047 143.777 28.3047C145.362 28.3047 146.568 27.9465 147.395 27.23C148.233 26.5034 148.651 25.5549 148.651 24.3843C148.651 23.2944 148.263 22.4316 147.486 21.7959C146.719 21.1602 145.251 20.4891 143.081 19.7827C140.861 19.0662 139.257 18.259 138.268 17.3608C137.289 16.4627 136.799 15.1357 136.799 13.3799C136.799 11.7048 137.405 10.3172 138.616 9.21729C139.827 8.11735 141.512 7.56738 143.671 7.56738C145.801 7.56738 147.496 8.13249 148.757 9.2627C150.029 10.3929 150.665 11.8965 150.665 13.7734V14.167H148.228V13.7734C148.228 12.5221 147.839 11.5282 147.062 10.7915C146.295 10.0448 145.165 9.67139 143.671 9.67139C142.127 9.67139 140.997 9.99935 140.281 10.6553C139.564 11.3011 139.206 12.1891 139.206 13.3193C139.206 14.3587 139.569 15.1812 140.296 15.7866C141.033 16.382 142.501 17.0278 144.701 17.7241C146.901 18.4204 148.51 19.2681 149.529 20.2671C150.559 21.256 151.073 22.6234 151.073 24.3691C151.073 26.1452 150.417 27.5933 149.105 28.7134C147.804 29.8335 146.028 30.3936 143.777 30.3936C141.537 30.3936 139.741 29.8385 138.389 28.7285C137.036 27.6084 136.36 26.0443 136.36 24.0361ZM154.358 36.4634V14.8633H156.522L156.583 16.9219H156.659C157.042 16.266 157.648 15.7109 158.475 15.2568C159.303 14.7926 160.251 14.5605 161.321 14.5605C163.228 14.5605 164.737 15.2669 165.847 16.6797C166.967 18.0924 167.527 19.9189 167.527 22.1592V22.6436C167.527 24.904 166.967 26.7456 165.847 28.1685C164.737 29.5913 163.228 30.3027 161.321 30.3027C160.251 30.3027 159.333 30.106 158.566 29.7124C157.799 29.3188 157.183 28.7992 156.719 28.1533V36.4634H154.358ZM156.719 25.6255C157.032 26.3218 157.537 26.9474 158.233 27.5024C158.929 28.0474 159.777 28.3198 160.776 28.3198C162.269 28.3198 163.364 27.7799 164.061 26.7002C164.767 25.6104 165.12 24.2581 165.12 22.6436V22.1592C165.12 20.5446 164.767 19.2075 164.061 18.1479C163.364 17.0884 162.269 16.5586 160.776 16.5586C159.777 16.5586 158.929 16.8311 158.233 17.376C157.537 17.9209 157.032 18.5415 156.719 19.2378V25.6255ZM169.782 22.6738V22.1895C169.782 19.9089 170.418 18.0521 171.689 16.6191C172.961 15.1862 174.661 14.4697 176.791 14.4697C178.91 14.4697 180.605 15.1862 181.876 16.6191C183.148 18.0521 183.784 19.9089 183.784 22.1895V22.6738C183.784 24.9645 183.148 26.8263 181.876 28.2593C180.605 29.6821 178.91 30.3936 176.791 30.3936C174.661 30.3936 172.961 29.6821 171.689 28.2593C170.418 26.8263 169.782 24.9645 169.782 22.6738ZM172.204 22.1895V22.6738C172.204 24.3086 172.588 25.6759 173.354 26.7759C174.132 27.8657 175.272 28.4106 176.775 28.4106C178.289 28.4106 179.429 27.8657 180.196 26.7759C180.973 25.6759 181.362 24.3035 181.362 22.6587V22.1895C181.362 20.5547 180.973 19.1924 180.196 18.1025C179.429 17.0127 178.289 16.4678 176.775 16.4678C175.272 16.4678 174.132 17.0127 173.354 18.1025C172.588 19.1924 172.204 20.5547 172.204 22.1895ZM184.934 16.7705V14.8633H193.426V16.7705H184.934ZM187.644 26.1099V15.9229V15.5747V10.3677H190.005V26.1099C190.005 26.9777 190.151 27.568 190.444 27.8809C190.736 28.1836 191.191 28.335 191.806 28.335C192.079 28.335 192.341 28.3097 192.593 28.2593C192.846 28.1987 193.098 28.118 193.35 28.0171V30.0151C193.118 30.116 192.815 30.2018 192.442 30.2725C192.079 30.3532 191.675 30.3936 191.231 30.3936C190.131 30.3936 189.258 30.0656 188.612 29.4097C187.966 28.7437 187.644 27.6437 187.644 26.1099ZM196.181 30V14.8633H198.542V30H196.181ZM195.848 9.8833C195.848 9.46956 195.979 9.12142 196.241 8.83887C196.504 8.54622 196.882 8.3999 197.376 8.3999C197.861 8.3999 198.234 8.54118 198.497 8.82373C198.759 9.10628 198.89 9.45947 198.89 9.8833C198.89 10.3071 198.759 10.6603 198.497 10.9429C198.234 11.2254 197.856 11.3667 197.361 11.3667C196.877 11.3667 196.504 11.2254 196.241 10.9429C195.979 10.6502 195.848 10.297 195.848 9.8833ZM203.537 30V12.29C203.537 10.5241 203.981 9.18701 204.869 8.27881C205.757 7.36051 206.973 6.90137 208.517 6.90137C208.82 6.90137 209.128 6.92155 209.44 6.96191C209.763 7.00228 210.066 7.06283 210.349 7.14355L210.197 9.09619C209.985 9.05583 209.748 9.02051 209.486 8.99023C209.234 8.94987 208.976 8.92969 208.714 8.92969C207.816 8.92969 207.119 9.20215 206.625 9.74707C206.141 10.2819 205.898 11.1296 205.898 12.29V15.605V15.8774V30H203.537ZM200.964 16.7705V14.8633H204.445H204.975H209.213V16.7705H200.964ZM210.833 36.2969V34.2686C211.085 34.3594 211.363 34.425 211.666 34.4653C211.968 34.5158 212.266 34.541 212.559 34.541C213.255 34.541 213.855 34.2231 214.36 33.5874C214.864 32.9618 215.409 31.766 215.995 30L210.288 14.8633H212.649L216.434 25.2773C216.575 25.6608 216.696 26.014 216.797 26.3369C216.898 26.6598 216.989 26.9626 217.069 27.2451H217.145C217.236 26.9626 217.332 26.6598 217.433 26.3369C217.544 26.014 217.665 25.6558 217.796 25.2622L221.459 14.8633H223.729L217.387 32.1191C216.852 33.5824 216.222 34.6924 215.495 35.4492C214.769 36.2161 213.84 36.5996 212.71 36.5996C212.316 36.5996 211.968 36.5744 211.666 36.5239C211.373 36.4735 211.095 36.3978 210.833 36.2969ZM230.163 10.0195V7.96094H246.162V10.0195H239.381V30H236.959V10.0195H230.163ZM246.752 30V14.8633H248.917L248.978 16.8765H249.053C249.457 16.2205 249.982 15.6554 250.627 15.1812C251.273 14.7069 252.055 14.4697 252.974 14.4697C253.175 14.4697 253.397 14.495 253.64 14.5454C253.882 14.5858 254.053 14.6261 254.154 14.6665V16.8613C253.963 16.821 253.751 16.7907 253.519 16.7705C253.297 16.7402 253.054 16.7251 252.792 16.7251C251.954 16.7251 251.213 16.9622 250.567 17.4365C249.931 17.9108 249.447 18.5163 249.114 19.2529V30H246.752ZM254.987 25.6104C254.987 24.0967 255.577 22.911 256.758 22.0532C257.949 21.1854 259.487 20.7515 261.375 20.7515H264.871V19.5405C264.871 18.5819 264.619 17.825 264.114 17.27C263.62 16.7049 262.782 16.4224 261.602 16.4224C260.431 16.4224 259.568 16.6595 259.013 17.1338C258.468 17.598 258.196 18.1883 258.196 18.9048V19.0864H255.85V18.8291C255.85 17.6484 256.369 16.6292 257.409 15.7715C258.448 14.9036 259.866 14.4697 261.662 14.4697C263.428 14.4697 264.795 14.8835 265.764 15.7109C266.743 16.5283 267.232 17.8049 267.232 19.5405V26.3672C267.232 27.0231 267.278 27.6437 267.369 28.229C267.47 28.8042 267.611 29.3138 267.792 29.7578V30H265.537C265.396 29.7477 265.265 29.4198 265.144 29.0161C265.033 28.6125 264.962 28.2038 264.932 27.79C264.578 28.4359 263.993 29.0111 263.176 29.5156C262.368 30.0101 261.329 30.2573 260.058 30.2573C258.594 30.2573 257.383 29.8587 256.425 29.0615C255.466 28.2643 254.987 27.1139 254.987 25.6104ZM257.348 25.4893C257.348 26.3975 257.611 27.0988 258.135 27.5933C258.67 28.0776 259.472 28.3198 260.542 28.3198C261.632 28.3198 262.626 27.9414 263.524 27.1846C264.422 26.4277 264.871 25.6104 264.871 24.7324V22.5225H261.662C260.219 22.5225 259.139 22.7899 258.423 23.3247C257.706 23.8595 257.348 24.5811 257.348 25.4893ZM270.351 22.6738V22.1895C270.351 19.8685 270.956 18.0016 272.167 16.5889C273.388 15.1761 275.053 14.4697 277.162 14.4697C279.15 14.4697 280.654 14.9995 281.673 16.0591C282.692 17.1086 283.202 18.3498 283.202 19.7827V19.9189H280.886V19.7827C280.886 18.8341 280.578 18.047 279.962 17.4214C279.357 16.7856 278.429 16.4678 277.177 16.4678C275.704 16.4678 274.599 16.9976 273.862 18.0571C273.136 19.1066 272.772 20.484 272.772 22.1895V22.6738C272.772 24.3288 273.136 25.7012 273.862 26.791C274.589 27.8708 275.689 28.4106 277.162 28.4106C278.434 28.4106 279.372 28.0928 279.978 27.457C280.593 26.8112 280.901 26.0039 280.901 25.0352V24.8989H283.217V25.0352C283.217 26.4681 282.697 27.7194 281.658 28.7891C280.628 29.8587 279.13 30.3936 277.162 30.3936C275.053 30.3936 273.388 29.6872 272.167 28.2744C270.956 26.8516 270.351 24.9847 270.351 22.6738ZM286.229 30V7.2041H288.59V21.8262L295.084 14.8633H297.839L288.59 24.6567V30H286.229ZM295.78 30L289.847 21.917L291.345 20.2671L298.535 30H295.78ZM299.595 25.459H301.941V25.6406C301.941 26.5892 302.264 27.2905 302.91 27.7446C303.566 28.1886 304.444 28.4106 305.543 28.4106C306.653 28.4106 307.521 28.1987 308.147 27.7749C308.773 27.3511 309.085 26.7607 309.085 26.0039C309.085 25.2673 308.818 24.7122 308.283 24.3389C307.748 23.9655 306.679 23.577 305.074 23.1733C303.46 22.7697 302.203 22.2298 301.305 21.5537C300.417 20.8776 299.973 19.924 299.973 18.6929C299.973 17.4517 300.468 16.4375 301.457 15.6504C302.456 14.8633 303.788 14.4697 305.453 14.4697C307.128 14.4697 308.475 14.8683 309.494 15.6655C310.523 16.4627 311.038 17.5677 311.038 18.9805V19.147H308.692V18.9502C308.692 18.1126 308.419 17.492 307.875 17.0884C307.33 16.6746 306.522 16.4678 305.453 16.4678C304.393 16.4678 303.606 16.6595 303.091 17.043C302.577 17.4264 302.319 17.9411 302.319 18.5869C302.319 19.2126 302.597 19.707 303.152 20.0703C303.717 20.4235 304.792 20.7969 306.376 21.1904C307.97 21.5941 309.207 22.144 310.084 22.8403C310.972 23.5366 311.417 24.5356 311.417 25.8374C311.417 27.1795 310.927 28.2744 309.948 29.1221C308.979 29.9697 307.516 30.3936 305.559 30.3936C303.601 30.3936 302.118 29.9697 301.108 29.1221C300.099 28.2643 299.595 27.1038 299.595 25.6406V25.459Z" fill="white"/>
<defs>
<clipPath id="clip0_2_13">
<rect width="58" height="38" fill="white"/>
</clipPath>
</defs>
</svg>
